<svg width="31" height="25" viewBox="0 0 31 25" fill="none" xmlns="http://www.w3.org/2000/svg">
<path fill-rule="evenodd" clip-rule="evenodd" d="M20.3307 25H3.77437C3.00547 25 2.3801 24.3745 2.3801 23.6057V21.4438C2.3801 20.6749 3.00555 20.0496 3.77437 20.0496H13.1571C13.4167 20.0496 13.6274 20.2602 13.6274 20.5198C13.6274 20.7794 13.4167 20.9901 13.1571 20.9901H3.77437C3.52414 20.9901 3.32053 21.1937 3.32053 21.4439V23.6057C3.32053 23.856 3.52414 24.0596 3.77437 24.0596H20.3305C20.3434 24.0596 20.3552 24.0592 20.3658 24.0582C20.625 24.0365 20.8521 24.2285 20.8738 24.4873C20.8958 24.7461 20.7035 24.9736 20.4447 24.9953C20.4083 24.9984 20.3698 25 20.3307 25Z" fill="#0D2302"/>
<path fill-rule="evenodd" clip-rule="evenodd" d="M13.1571 20.9898H1.39428C0.625375 20.9898 0 20.3644 0 19.5956V17.4342C0 16.6653 0.625457 16.0399 1.39428 16.0399H11.7062C11.9658 16.0399 12.1765 16.2505 12.1765 16.5102C12.1765 16.7698 11.9658 16.9804 11.7062 16.9804H1.39428C1.14404 16.9804 0.940512 17.184 0.940512 17.4342V19.5956C0.940512 19.8458 1.14413 20.0493 1.39428 20.0493H13.1571C13.4168 20.0493 13.6274 20.26 13.6274 20.5196C13.6274 20.7792 13.4169 20.9898 13.1571 20.9898Z" fill="#0D2302"/>
<path fill-rule="evenodd" clip-rule="evenodd" d="M11.7063 16.9802H3.77428C3.00538 16.9802 2.38 16.3547 2.38 15.5859V13.4241C2.38 12.6552 3.00546 12.0297 3.77428 12.0297H12.1835C12.4431 12.0297 12.6537 12.2404 12.6537 12.5C12.6537 12.7596 12.4431 12.9703 12.1835 12.9703H3.77436C3.52413 12.9703 3.32052 13.1739 3.32052 13.424V15.5858C3.32052 15.836 3.52413 16.0397 3.77436 16.0397H11.7062C11.9658 16.0397 12.1764 16.2503 12.1764 16.5099C12.1764 16.7695 11.966 16.9802 11.7063 16.9802Z" fill="#0D2302"/>
<path fill-rule="evenodd" clip-rule="evenodd" d="M12.1837 12.9703H1.39428C0.625375 12.9703 0 12.3448 0 11.5759V9.41411C0 8.64529 0.625457 8.01983 1.39428 8.01983H15.0738C15.3335 8.01983 15.5441 8.23046 15.5441 8.49008C15.5441 8.74971 15.3335 8.96034 15.0738 8.96034H1.39428C1.14404 8.96034 0.940512 9.16396 0.940512 9.41411V11.5759C0.940512 11.8261 1.14413 12.0297 1.39428 12.0297H12.1835C12.4431 12.0297 12.6537 12.2403 12.6537 12.4999C12.6537 12.7595 12.4433 12.9703 12.1837 12.9703Z" fill="#0D2302"/>
<path fill-rule="evenodd" clip-rule="evenodd" d="M15.0738 8.96034H3.77437C3.00547 8.96034 2.3801 8.33488 2.3801 7.56598V5.40435C2.3801 4.63553 3.00555 4.01008 3.77437 4.01008H20.3305C21.0994 4.01008 21.7248 4.63553 21.7248 5.40435V6.57918C21.7248 6.8388 21.5141 7.04943 21.2545 7.04943C20.9949 7.04943 20.7843 6.8388 20.7843 6.57918V5.40435C20.7843 5.15412 20.5806 4.95059 20.3305 4.95059H3.77437C3.52414 4.95059 3.32053 5.1542 3.32053 5.40435V7.56582C3.32053 7.81605 3.52414 8.01958 3.77437 8.01958H15.0738C15.3335 8.01958 15.5441 8.23022 15.5441 8.48984C15.5441 8.74946 15.3334 8.96034 15.0738 8.96034Z" fill="#0D2302"/>
<path fill-rule="evenodd" clip-rule="evenodd" d="M18.091 4.95043H1.25429C0.562786 4.95043 0.000274658 4.38792 0.000274658 3.69641V1.25402C0.000274658 0.562511 0.562786 0 1.25429 0H18.0912C18.7827 0 19.3452 0.562511 19.3452 1.25402V3.69641C19.345 4.38792 18.7824 4.95043 18.091 4.95043ZM1.25429 0.940512C1.08146 0.940512 0.940787 1.08118 0.940787 1.25402V3.69641C0.940787 3.86925 1.08146 4.00991 1.25429 4.00991H18.0912C18.264 4.00991 18.4047 3.86925 18.4047 3.69641V1.25402C18.4047 1.08118 18.264 0.940512 18.0912 0.940512H1.25429Z" fill="#0D2302"/>
<path fill-rule="evenodd" clip-rule="evenodd" d="M20.6405 25C19.3641 25 18.1258 24.75 16.9598 24.2568C15.8337 23.7805 14.8225 23.0988 13.9543 22.2306C13.0861 21.3625 12.4043 20.3512 11.9281 19.2251C11.4349 18.0591 11.1849 16.8207 11.1849 15.5443C11.1849 14.268 11.4349 13.0297 11.9281 11.8636C12.4044 10.7375 13.0861 9.7263 13.9543 8.85812C14.8225 7.98987 15.8337 7.30799 16.9598 6.83186C18.1258 6.33866 19.3641 6.08868 20.6405 6.08868C21.9169 6.08868 23.1552 6.33866 24.3213 6.83186C25.4473 7.30816 26.4586 7.98987 27.3267 8.85812C28.195 9.7263 28.8769 10.7376 29.353 11.8636C29.8462 13.0296 30.0962 14.2682 30.0962 15.5443C30.0962 16.8205 29.8462 18.0591 29.353 19.2251C28.8767 20.3512 28.195 21.3624 27.3267 22.2306C26.4586 23.0988 25.4473 23.7807 24.3213 24.2568C23.1552 24.7498 21.9168 25 20.6405 25ZM20.6405 7.02862C15.9452 7.02862 12.1252 10.8486 12.1252 15.5439C12.1252 20.2392 15.9452 24.0593 20.6405 24.0593C25.3358 24.0593 29.1559 20.2395 29.1559 15.5442C29.1558 10.8488 25.3358 7.02862 20.6405 7.02862Z" fill="#0D2302"/>
<path fill-rule="evenodd" clip-rule="evenodd" d="M20.6405 22.5316C19.6975 22.5316 18.7822 22.3468 17.9204 21.9824C17.0883 21.6305 16.3412 21.1267 15.6995 20.485C15.0578 19.8433 14.5542 19.0962 14.2022 18.264C13.8377 17.4023 13.653 16.487 13.653 15.5439C13.653 14.6009 13.8377 13.6857 14.2022 12.824C14.554 11.9918 15.0578 11.2447 15.6995 10.603C16.341 9.96143 17.0883 9.4577 17.9204 9.10558C18.7822 8.74113 19.6975 8.55638 20.6405 8.55638C21.5835 8.55638 22.4988 8.74113 23.3606 9.10558C24.1927 9.45746 24.9398 9.96127 25.5815 10.603C26.2231 11.2445 26.7268 11.9918 27.0789 12.824C27.4434 13.6857 27.6281 14.601 27.6281 15.5439C27.6281 16.487 27.4434 17.4023 27.0789 18.264C26.7271 19.0962 26.2232 19.8433 25.5815 20.485C24.94 21.1265 24.1927 21.6302 23.3606 21.9824C22.4988 22.3468 21.5835 22.5316 20.6405 22.5316ZM20.6405 9.49705C17.3062 9.49705 14.5936 12.2096 14.5936 15.5439C14.5936 18.8783 17.3062 21.5908 20.6405 21.5908C23.9748 21.5908 26.6874 18.8782 26.6874 15.5439C26.6874 12.2098 23.9748 9.49705 20.6405 9.49705Z" fill="#436D49"/>
<path fill-rule="evenodd" clip-rule="evenodd" d="M20.6405 19.2805C20.4686 19.2805 20.3103 19.1866 20.2278 19.036L19.1392 17.0454L17.1486 15.9568C16.9977 15.8743 16.9041 15.7162 16.9041 15.5442C16.9041 15.3723 16.998 15.214 17.1486 15.1315L19.1392 14.0429L20.2278 12.0523C20.3103 11.9014 20.4684 11.8078 20.6405 11.8078C20.8124 11.8078 20.9707 11.9016 21.0531 12.0523L22.1418 14.0429L24.1324 15.1315C24.2833 15.2139 24.3769 15.3721 24.3769 15.5442C24.3769 15.716 24.283 15.8743 24.1324 15.9568L22.1418 17.0454L21.0531 19.036C20.9704 19.1866 20.8123 19.2805 20.6405 19.2805ZM18.3542 15.5441L19.7113 16.2863C19.7902 16.3294 19.8551 16.3942 19.8982 16.4733L20.6404 17.8303L21.3826 16.4733C21.4257 16.3943 21.4906 16.3294 21.5695 16.2863L22.9265 15.5441L21.5695 14.8019C21.4906 14.7588 21.4256 14.694 21.3826 14.6149L20.6404 13.2579L19.8982 14.6149C19.8551 14.6939 19.7903 14.7588 19.7113 14.8019L18.3542 15.5441Z" fill="#436D49"/>
</svg>
