<svg width="295" height="48" viewBox="0 0 295 48" fill="none" xmlns="http://www.w3.org/2000/svg">
<path d="M294.61 0H0V33.2439H294.61V0Z" fill="#96E2B0"/>
<path d="M294.61 0H244.171V33.2439H294.61V0Z" fill="#3F6743"/>
<path d="M294.954 38.7463H0V43.9049H294.954V38.7463Z" fill="#96E2B0"/>
<path d="M11.245 23V11.48H20.525C20.9304 11.48 21.3037 11.5813 21.645 11.784C21.9864 11.9867 22.2584 12.2587 22.461 12.6C22.6637 12.9307 22.765 13.2987 22.765 13.704V20.776C22.765 21.1813 22.6637 21.5547 22.461 21.896C22.2584 22.2267 21.9864 22.4933 21.645 22.696C21.3037 22.8987 20.9304 23 20.525 23H11.245ZM13.533 20.872H20.429C20.4824 20.872 20.5304 20.856 20.573 20.824C20.6157 20.7813 20.637 20.7333 20.637 20.68V13.8C20.637 13.7467 20.6157 13.704 20.573 13.672C20.5304 13.6293 20.4824 13.608 20.429 13.608H13.533C13.4797 13.608 13.4317 13.6293 13.389 13.672C13.357 13.704 13.341 13.7467 13.341 13.8V20.68C13.341 20.7333 13.357 20.7813 13.389 20.824C13.4317 20.856 13.4797 20.872 13.533 20.872ZM24.3328 23V11.48H26.4288V23H24.3328ZM30.1546 23C29.7493 23 29.376 22.8987 29.0346 22.696C28.704 22.4933 28.4373 22.2267 28.2346 21.896C28.032 21.5547 27.9306 21.1813 27.9306 20.776V19.896H30.0426V20.68C30.0426 20.7333 30.0586 20.7813 30.0906 20.824C30.1333 20.856 30.1813 20.872 30.2346 20.872H37.1306C37.184 20.872 37.2266 20.856 37.2586 20.824C37.3013 20.7813 37.3226 20.7333 37.3226 20.68V18.488C37.3226 18.4347 37.3013 18.392 37.2586 18.36C37.2266 18.328 37.184 18.312 37.1306 18.312H30.1546C29.7493 18.312 29.376 18.2107 29.0346 18.008C28.704 17.8053 28.4373 17.5387 28.2346 17.208C28.032 16.8667 27.9306 16.488 27.9306 16.072V13.704C27.9306 13.2987 28.032 12.9307 28.2346 12.6C28.4373 12.2587 28.704 11.9867 29.0346 11.784C29.376 11.5813 29.7493 11.48 30.1546 11.48H37.2266C37.632 11.48 38 11.5813 38.3306 11.784C38.672 11.9867 38.944 12.2587 39.1466 12.6C39.3493 12.9307 39.4506 13.2987 39.4506 13.704V14.584H37.3226V13.8C37.3226 13.7467 37.3013 13.704 37.2586 13.672C37.2266 13.6293 37.184 13.608 37.1306 13.608H30.2346C30.1813 13.608 30.1333 13.6293 30.0906 13.672C30.0586 13.704 30.0426 13.7467 30.0426 13.8V15.992C30.0426 16.0453 30.0586 16.088 30.0906 16.12C30.1333 16.152 30.1813 16.168 30.2346 16.168H37.2266C37.632 16.168 38 16.2693 38.3306 16.472C38.672 16.6747 38.944 16.9467 39.1466 17.288C39.3493 17.6187 39.4506 17.992 39.4506 18.408V20.776C39.4506 21.1813 39.3493 21.5547 39.1466 21.896C38.944 22.2267 38.672 22.4933 38.3306 22.696C38 22.8987 37.632 23 37.2266 23H30.1546ZM43.4214 23C43.0161 23 42.6427 22.8987 42.3014 22.696C41.9707 22.4933 41.7041 22.2267 41.5014 21.896C41.2987 21.5547 41.1974 21.1813 41.1974 20.776V13.704C41.1974 13.2987 41.2987 12.9307 41.5014 12.6C41.7041 12.2587 41.9707 11.9867 42.3014 11.784C42.6427 11.5813 43.0161 11.48 43.4214 11.48H52.6854V13.608H43.8694C43.6987 13.608 43.5601 13.656 43.4534 13.752C43.3574 13.848 43.3094 13.9867 43.3094 14.168V20.312C43.3094 20.4827 43.3574 20.6213 43.4534 20.728C43.5601 20.824 43.6987 20.872 43.8694 20.872H52.6854V23H43.4214ZM56.5456 23C56.1403 23 55.767 22.8987 55.4256 22.696C55.095 22.4933 54.8283 22.2267 54.6256 21.896C54.423 21.5547 54.3216 21.1813 54.3216 20.776V13.704C54.3216 13.2987 54.423 12.9307 54.6256 12.6C54.8283 12.2587 55.095 11.9867 55.4256 11.784C55.767 11.5813 56.1403 11.48 56.5456 11.48H63.6176C64.023 11.48 64.391 11.5813 64.7216 11.784C65.063 11.9867 65.335 12.2587 65.5376 12.6C65.7403 12.9307 65.8416 13.2987 65.8416 13.704V20.776C65.8416 21.1813 65.7403 21.5547 65.5376 21.896C65.335 22.2267 65.063 22.4933 64.7216 22.696C64.391 22.8987 64.023 23 63.6176 23H56.5456ZM56.6256 20.872H63.5056C63.559 20.872 63.607 20.856 63.6496 20.824C63.6923 20.7813 63.7136 20.7333 63.7136 20.68V13.8C63.7136 13.7467 63.6923 13.704 63.6496 13.672C63.607 13.6293 63.559 13.608 63.5056 13.608H56.6256C56.5723 13.608 56.5243 13.6293 56.4816 13.672C56.4496 13.704 56.4336 13.7467 56.4336 13.8V20.68C56.4336 20.7333 56.4496 20.7813 56.4816 20.824C56.5243 20.856 56.5723 20.872 56.6256 20.872ZM69.7956 23C69.3903 23 69.017 22.8987 68.6756 22.696C68.345 22.4933 68.0783 22.2267 67.8756 21.896C67.673 21.5547 67.5716 21.1813 67.5716 20.776V11.48H69.6836V20.68C69.6836 20.7333 69.6996 20.7813 69.7316 20.824C69.7743 20.856 69.8223 20.872 69.8756 20.872H76.7556C76.809 20.872 76.857 20.856 76.8996 20.824C76.9423 20.7813 76.9636 20.7333 76.9636 20.68V11.48H79.0916V20.776C79.0916 21.1813 78.9903 21.5547 78.7876 21.896C78.585 22.2267 78.313 22.4933 77.9716 22.696C77.641 22.8987 77.273 23 76.8676 23H69.7956ZM80.8536 23V11.48H83.1736L90.2456 19.896V11.48H92.3736V23H90.0536L82.9656 14.568V23H80.8536ZM98.2941 23V13.608H93.5901V11.48H105.11V13.608H100.422V23H98.2941ZM111.229 23V13.704C111.229 13.2987 111.331 12.9307 111.533 12.6C111.736 12.2587 112.003 11.9867 112.333 11.784C112.675 11.5813 113.048 11.48 113.453 11.48H120.509C120.915 11.48 121.288 11.5813 121.629 11.784C121.971 11.9867 122.243 12.2587 122.445 12.6C122.648 12.9307 122.749 13.2987 122.749 13.704V23H120.621V19.128H113.341V23H111.229ZM113.341 17.016H120.621V13.8C120.621 13.7467 120.6 13.704 120.557 13.672C120.515 13.6293 120.467 13.608 120.413 13.608H113.533C113.48 13.608 113.432 13.6293 113.389 13.672C113.357 13.704 113.341 13.7467 113.341 13.8V17.016ZM124.572 23V11.496H133.852C134.258 11.496 134.631 11.5973 134.972 11.8C135.314 12.0027 135.586 12.2747 135.788 12.616C135.991 12.9467 136.092 13.3147 136.092 13.72V16.824C136.092 17.2293 135.991 17.6027 135.788 17.944C135.586 18.2853 135.314 18.5573 134.972 18.76C134.631 18.952 134.258 19.048 133.852 19.048L126.684 19.064V23H124.572ZM126.876 16.92H133.756C133.81 16.92 133.858 16.904 133.9 16.872C133.943 16.84 133.964 16.7973 133.964 16.744V13.8C133.964 13.7467 133.943 13.704 133.9 13.672C133.858 13.6293 133.81 13.608 133.756 13.608H126.876C126.823 13.608 126.775 13.6293 126.732 13.672C126.7 13.704 126.684 13.7467 126.684 13.8V16.744C126.684 16.7973 126.7 16.84 126.732 16.872C126.775 16.904 126.823 16.92 126.876 16.92ZM137.229 23V11.496H146.509C146.914 11.496 147.287 11.5973 147.629 11.8C147.97 12.0027 148.242 12.2747 148.445 12.616C148.647 12.9467 148.749 13.3147 148.749 13.72V16.824C148.749 17.2293 148.647 17.6027 148.445 17.944C148.242 18.2853 147.97 18.5573 147.629 18.76C147.287 18.952 146.914 19.048 146.509 19.048L139.341 19.064V23H137.229ZM139.533 16.92H146.413C146.466 16.92 146.514 16.904 146.557 16.872C146.599 16.84 146.621 16.7973 146.621 16.744V13.8C146.621 13.7467 146.599 13.704 146.557 13.672C146.514 13.6293 146.466 13.608 146.413 13.608H139.533C139.479 13.608 139.431 13.6293 139.389 13.672C139.357 13.704 139.341 13.7467 139.341 13.8V16.744C139.341 16.7973 139.357 16.84 139.389 16.872C139.431 16.904 139.479 16.92 139.533 16.92Z" fill="#0D2302"/>
<path d="M264.125 21.7317V18.8357H256.877V16.8677L264.253 10.2117H266.221V16.7237H267.837V18.8357H266.221V21.7317H264.125ZM260.141 16.7237H264.125V13.3957L260.141 16.7237ZM275.812 21.7317V18.8357H268.564V16.8677L275.94 10.2117H277.908V16.7237H279.524V18.8357H277.908V21.7317H275.812ZM271.828 16.7237H275.812V13.3957L271.828 16.7237Z" fill="#96E2B0"/>
<line x1="261.813" y1="38.0529" x2="257.228" y2="47.2236" stroke="#0D2302"/>
<line x1="269.837" y1="38.0529" x2="265.252" y2="47.2236" stroke="#0D2302"/>
<line x1="253.789" y1="35.7602" x2="249.203" y2="44.9309" stroke="#0D2302"/>
<line x1="238" y1="33.2439" x2="238" y2="-7.63107e-06" stroke="#3F6743" stroke-width="2"/>
<line x1="2.93896" y1="33.2439" x2="2.93896" y2="-7.63023e-06" stroke="#3F6743"/>
<line x1="231" y1="33.2439" x2="231" y2="-7.63107e-06" stroke="#3F6743" stroke-width="2"/>
<line x1="224" y1="33.2439" x2="224" y2="-7.63107e-06" stroke="#3F6743" stroke-opacity="0.8" stroke-width="2"/>
<line x1="217" y1="33.2439" x2="217" y2="-7.63107e-06" stroke="#3F6743" stroke-opacity="0.5" stroke-width="2"/>
</svg>
