<svg width="943" height="545" viewBox="0 0 943 545" fill="none" xmlns="http://www.w3.org/2000/svg">
<path d="M821.092 500.915C823.744 501.483 825.449 503.946 824.881 506.409C824.313 509.062 821.85 510.767 819.387 510.198C816.735 509.63 815.029 507.167 815.598 504.704C815.977 502.052 818.629 500.347 821.092 500.915Z" fill="#76B28A" fill-opacity="0.7"/>
<path d="M339.88 495.8H528.765C528.765 492.011 525.734 488.98 521.944 488.98H346.7C342.911 489.169 339.88 492.2 339.88 495.8Z" fill="#76B28A" fill-opacity="0.7"/>
<path d="M550.931 489.737L566.087 504.704H820.334V507.357H564.951L549.037 491.442L550.931 489.737Z" fill="#76B28A" fill-opacity="0.7"/>
<path d="M319.608 489.737L321.314 491.442L305.589 507.357H50.2056V504.704H304.452L319.608 489.737Z" fill="#76B28A" fill-opacity="0.7"/>
<path d="M562.488 510.009L563.814 511.335L534.07 541.079H452.415V539.185H533.312L562.488 510.009Z" fill="#76B28A" fill-opacity="0.7"/>
<path d="M311.272 510.009L340.259 539.185H421.155V541.079H339.501L339.311 540.89L309.757 511.335L311.272 510.009Z" fill="#76B28A" fill-opacity="0.7"/>
<path d="M442.185 539.185C442.185 542.027 439.911 544.3 437.069 544.3C434.228 544.3 431.954 542.027 431.954 539.185C431.954 536.343 434.228 534.069 437.069 534.069C439.911 534.259 442.185 536.532 442.185 539.185Z" fill="#76B28A" fill-opacity="0.7"/>
<path d="M520.24 498.642H546.763L557.562 509.441L544.3 522.702L520.24 498.642Z" fill="#76B28A" fill-opacity="0.7"/>
<path d="M488.979 498.642H515.503L541.837 524.976L530.849 536.154H526.302L488.979 498.642Z" fill="#76B28A" fill-opacity="0.7"/>
<path opacity="0.68" d="M457.72 498.642H484.243L521.755 536.154H495.042L457.72 498.642Z" fill="#76B28A" fill-opacity="0.7"/>
<path opacity="0.68" d="M452.415 524.597V498.642H452.984L490.495 536.154H463.782L452.415 524.597Z" fill="#76B28A" fill-opacity="0.7"/>
<path d="M353.331 498.642H326.807L316.008 509.441L329.27 522.702L353.331 498.642Z" fill="#76B28A" fill-opacity="0.7"/>
<path d="M384.591 498.642H358.067L331.733 524.976L342.721 536.154H347.268L384.591 498.642Z" fill="#76B28A" fill-opacity="0.7"/>
<path d="M415.851 498.642H389.327L351.815 536.154H378.528L415.851 498.642Z" fill="#76B28A" fill-opacity="0.7"/>
<path opacity="0.68" d="M421.155 524.597V498.642H420.587L383.075 536.154H409.788L421.155 524.597Z" fill="#76B28A" fill-opacity="0.7"/>
<path opacity="0.68" d="M422.935 524.825H450.595V498.68H422.935V524.825Z" fill="#76B28A" fill-opacity="0.7"/>
<path d="M53.9944 505.651C53.9944 502.999 51.9104 500.915 49.2581 500.915C46.6057 500.915 44.5217 502.999 44.5217 505.651C44.5217 508.304 46.6057 510.388 49.2581 510.388C51.9104 510.388 53.9944 508.304 53.9944 505.651Z" fill="#76B28A" fill-opacity="0.7"/>
<path d="M822.797 414.714C821.471 414.714 820.524 413.767 820.524 412.44V109.694C820.524 108.367 821.471 107.42 822.797 107.42C824.123 107.42 825.071 108.367 825.071 109.694V412.44C825.071 413.767 824.123 414.714 822.797 414.714Z" fill="#76B28A" fill-opacity="0.7"/>
<path d="M817.682 119.545H815.598V214.84H817.682V119.545Z" fill="#76B28A" fill-opacity="0.7"/>
<path d="M6.69353 293.086L4.01428 295.765L46.3465 338.097L49.0257 335.418L6.69353 293.086Z" fill="#76B28A" fill-opacity="0.7"/>
<path d="M6.74712 267.867L4.06787 270.546L46.4001 312.878L49.0793 310.199L6.74712 267.867Z" fill="#76B28A" fill-opacity="0.7"/>
<path d="M6.66705 242.513L3.98779 245.192L46.32 287.524L48.9992 284.845L6.66705 242.513Z" fill="#76B28A" fill-opacity="0.7"/>
<path d="M6.72051 217.294L4.04126 219.973L46.3734 262.305L49.0527 259.626L6.72051 217.294Z" fill="#76B28A" fill-opacity="0.7"/>
<path d="M6.64202 191.939L3.96277 194.618L46.2949 236.95L48.9742 234.271L6.64202 191.939Z" fill="#76B28A" fill-opacity="0.7"/>
<path d="M6.69598 166.719L4.01672 169.398L46.3489 211.73L49.0282 209.051L6.69598 166.719Z" fill="#76B28A" fill-opacity="0.7"/>
<path d="M6.74859 141.501L4.06934 144.18L46.4015 186.513L49.0808 183.833L6.74859 141.501Z" fill="#76B28A" fill-opacity="0.7"/>
<path d="M6.66851 116.148L3.98926 118.827L46.3214 161.159L49.0007 158.48L6.66851 116.148Z" fill="#76B28A" fill-opacity="0.7"/>
<path d="M6.7221 90.9282L4.04285 93.6075L46.375 135.94L49.0543 133.26L6.7221 90.9282Z" fill="#76B28A" fill-opacity="0.7"/>
<path d="M6.64202 65.5748L3.96277 68.254L46.2949 110.586L48.9742 107.907L6.64202 65.5748Z" fill="#76B28A" fill-opacity="0.7"/>
<path d="M6.69549 40.3552L4.01624 43.0345L46.3484 85.3667L49.0277 82.6874L6.69549 40.3552Z" fill="#76B28A" fill-opacity="0.7"/>
<path d="M6.74932 15.1358L4.07007 17.8151L46.4022 60.1473L49.0815 57.468L6.74932 15.1358Z" fill="#76B28A" fill-opacity="0.7"/>
<path d="M149.668 0H143.416V65.3615H149.668V0Z" fill="#76B28A" fill-opacity="0.7"/>
<path opacity="0.5" d="M162.93 0H156.678V65.3615H162.93V0Z" fill="#76B28A" fill-opacity="0.7"/>
<path opacity="0.3" d="M176.192 0H169.94V65.3615H176.192V0Z" fill="#76B28A" fill-opacity="0.7"/>
<path opacity="0.1" d="M189.454 0H183.202V65.3615H189.454V0Z" fill="#76B28A" fill-opacity="0.7"/>
<path d="M135.838 19.1348H38.8378V22.9239H135.838V19.1348Z" fill="#76B28A" fill-opacity="0.7"/>
</svg>
