<svg width="30" height="31" viewBox="0 0 30 31" fill="none" xmlns="http://www.w3.org/2000/svg">
<path d="M29.0015 16.2679L17.2696 4.53622C16.5938 3.86222 15.786 3.33517 14.8968 2.98814C14.0077 2.64112 13.0564 2.48162 12.1027 2.51965L8.01825 2.68805C5.98603 0.222302 2.37324 -0.879226 0.814157 0.816215C-0.80276 2.34392 0.104822 5.7353 2.51215 7.8558L2.32913 12.2927C2.29106 13.2465 2.45057 14.1979 2.79764 15.0871C3.14471 15.9763 3.67186 16.7842 4.34598 17.4601L16.0779 29.1918C16.7237 29.8316 17.5961 30.1906 18.5052 30.1905C19.4144 30.1905 20.2867 29.8316 20.9326 29.1917L29.0015 21.1228C29.6412 20.4768 30 19.6045 30 18.6954C30 17.7863 29.6412 16.9139 29.0015 16.2679ZM1.57663 1.57863C2.5714 0.584389 4.80543 1.12829 6.57586 2.74752C5.57875 2.75473 4.61949 3.13022 3.88246 3.80183C3.14542 4.47344 2.68263 5.39377 2.58303 6.38592C1.09391 4.64783 0.619258 2.536 1.57663 1.57863ZM28.239 20.3603L20.17 28.4293C19.7285 28.8708 19.1297 29.1188 18.5052 29.1188C17.8808 29.1188 17.282 28.8708 16.8404 28.4293L5.10848 16.6976C4.53952 16.1273 4.09462 15.4456 3.80173 14.6951C3.50884 13.9447 3.3743 13.1418 3.40654 12.3369L3.55718 8.68369C4.2821 9.18071 5.09687 9.53181 5.956 9.7174C6.19814 10.3563 6.66806 10.8831 7.27529 11.1963C7.88253 11.5095 8.58417 11.587 9.24514 11.4139C9.90611 11.2409 10.4797 10.8294 10.8555 10.2588C11.2313 9.68815 11.3827 8.99868 11.2807 8.32309C11.1786 7.6475 10.8302 7.03354 10.3026 6.5994C9.77503 6.16525 9.10548 5.94161 8.42288 5.97152C7.74028 6.00143 7.09286 6.28278 6.60526 6.76141C6.11766 7.24004 5.82433 7.88211 5.78174 8.56404C4.98924 8.31219 4.25234 7.91081 3.61089 7.38163L3.6414 6.64181C3.67561 5.9076 3.98264 5.2126 4.50236 4.69288C5.02209 4.17315 5.71709 3.86613 6.45129 3.83192L12.1469 3.59705C12.9516 3.56558 13.7542 3.70046 14.5044 3.99326C15.2547 4.28605 15.9364 4.73047 16.5071 5.29873L28.239 17.0304C28.6799 17.4723 28.9274 18.0711 28.9274 18.6953C28.9274 19.3196 28.6799 19.9183 28.239 20.3603ZM6.84468 8.72264C6.84457 8.33222 6.97984 7.95384 7.22745 7.65197C7.47505 7.35011 7.81966 7.14344 8.20257 7.06718C8.58547 6.99092 8.98297 7.04979 9.32733 7.23375C9.67169 7.41772 9.94161 7.7154 10.0911 8.07607C10.2406 8.43674 10.2604 8.83809 10.1471 9.21172C10.0339 9.58535 9.79454 9.90815 9.46996 10.1251C9.14537 10.3421 8.7556 10.4398 8.36705 10.4016C7.9785 10.3634 7.61522 10.1916 7.33911 9.91559C7.2991 9.87565 7.26823 9.82954 7.23278 9.78639C7.89113 9.70157 9.29659 9.36624 8.81787 8.50413C8.77599 8.44697 8.72324 8.39863 8.66266 8.36187C8.60207 8.32512 8.53483 8.30067 8.46478 8.28993C8.39474 8.2792 8.32326 8.28237 8.25445 8.29929C8.18563 8.31621 8.12083 8.34653 8.06374 8.38852C7.70571 8.63208 7.27686 8.74963 6.84468 8.72264Z" fill="#0D2302"/>
<path d="M14.1443 16.602C11.2536 16.6728 11.2546 20.9159 14.1443 20.9862C17.0343 20.915 17.034 16.6728 14.1443 16.602ZM14.932 19.5815C14.7221 19.7846 14.4406 19.8971 14.1484 19.8947C13.8563 19.8923 13.5767 19.7752 13.3701 19.5686C13.1635 19.362 13.0463 19.0825 13.0439 18.7903C13.0414 18.4981 13.1539 18.2167 13.3571 18.0067C13.5671 17.8035 13.8485 17.691 14.1407 17.6934C14.4328 17.6958 14.7124 17.813 14.919 18.0196C15.1256 18.2261 15.2428 18.5057 15.2452 18.7978C15.2477 19.09 15.1352 19.3715 14.932 19.5815Z" fill="#0D2302"/>
<path d="M19.6271 15.3579C17.6346 17.4512 20.6291 20.4497 22.7272 18.4579C24.7207 16.3656 21.7252 13.3664 19.6271 15.3579ZM21.9647 17.6955C21.7548 17.8996 21.4731 18.0128 21.1804 18.0108C20.8877 18.0087 20.6075 17.8915 20.4006 17.6845C20.1936 17.4776 20.0764 17.1974 20.0744 16.9047C20.0723 16.612 20.1856 16.3303 20.3897 16.1204C20.5996 15.9167 20.8812 15.8037 21.1738 15.8059C21.4663 15.8081 21.7462 15.9253 21.9531 16.1321C22.1599 16.339 22.2771 16.6189 22.2792 16.9114C22.2814 17.2039 22.1684 17.4856 21.9647 17.6955Z" fill="#0D2302"/>
<path d="M15.8014 12.4677C15.7403 12.3405 15.6318 12.2422 15.4991 12.1941C15.3664 12.146 15.2201 12.1518 15.0916 12.2103C14.9631 12.2689 14.8627 12.3754 14.8119 12.5071C14.7611 12.6388 14.764 12.7852 14.8199 12.9148L19.5197 23.2344C19.579 23.3646 19.6875 23.4659 19.8215 23.516C19.9555 23.5661 20.1039 23.5609 20.234 23.5017C20.3642 23.4424 20.4655 23.3338 20.5156 23.1998C20.5657 23.0659 20.5605 22.9175 20.5013 22.7873L15.8014 12.4677Z" fill="#0D2302"/>
</svg>
