<svg width="34" height="34" viewBox="0 0 34 34" fill="none" xmlns="http://www.w3.org/2000/svg">
<path d="M17 0C7.62592 0 0 7.62592 0 17C0 26.3741 7.62592 34 17 34C26.3741 34 34 26.3741 34 17C34 7.62592 26.3741 0 17 0ZM17 32.5833C8.40792 32.5833 1.41667 25.5921 1.41667 17C1.41667 8.40792 8.40792 1.41667 17 1.41667C25.5921 1.41667 32.5833 8.40792 32.5833 17C32.5833 25.5921 25.5921 32.5833 17 32.5833Z" fill="#23411F"/>
<path d="M16.1035 8.56992C15.5213 8.00771 14.6557 7.84569 13.8992 8.15449C13.1384 8.46468 12.6667 9.15429 12.6667 9.95469V24.0447C12.6667 24.8451 13.1384 25.5347 13.8992 25.8449C14.1542 25.9488 14.4205 26 14.6854 26C15.2068 26 15.7182 25.802 16.1035 25.4295L23.4064 18.3852C23.7889 18.0154 24 17.5238 24 17.0004C24 16.4769 23.7889 15.9854 23.4064 15.6156L16.1035 8.56992ZM22.4105 17.3978L15.109 24.4421C14.8413 24.7011 14.5339 24.6014 14.4446 24.5654C14.3355 24.5211 14.0834 24.3812 14.0834 24.0433V9.95469C14.0834 9.61681 14.3369 9.47694 14.4446 9.43263C14.4871 9.41602 14.5792 9.38417 14.6939 9.38417C14.8186 9.38417 14.9688 9.42155 15.109 9.55588L22.4105 16.6002C22.5224 16.7068 22.5834 16.8495 22.5834 16.999C22.5834 17.1486 22.5224 17.2912 22.4105 17.3978Z" fill="#23411F"/>
</svg>
